<svg width="70" height="70" viewBox="0 0 70 70" fill="none" xmlns="http://www.w3.org/2000/svg">
<path d="M23.68 34.3242C20.4453 35.421 16.9595 35.5791 13.6364 34.7797C10.3133 33.9804 7.29264 32.2572 4.93304 29.8147C2.57345 27.3723 0.974075 24.3132 0.324856 21.0008C-0.324363 17.6884 0.00384545 14.2617 1.27051 11.1278L15.3881 25.0527L25.467 15.0761L11.3851 1.22179C14.6837 -0.0570705 18.2933 -0.339595 21.7551 0.410136C25.2169 1.15987 28.3744 2.90799 30.8264 5.43226C33.2783 7.95653 34.9139 11.1429 35.5251 14.5864C36.1364 18.0299 35.6958 21.5748 34.2592 24.7707L70 60.0235L59.8854 70L23.68 34.3242Z" fill="black"/>
</svg>
