<svg width="68" height="52" viewBox="0 0 68 52" fill="none" xmlns="http://www.w3.org/2000/svg">
<path d="M49.3126 21.8125H40.5626C39.6923 21.8125 38.8577 21.4668 38.2424 20.8514C37.627 20.2361 37.2813 19.4015 37.2813 18.5312C37.2813 17.661 37.627 16.8264 38.2424 16.2111C38.8577 15.5957 39.6923 15.25 40.5626 15.25H49.3126C50.1828 15.25 51.0174 15.5957 51.6328 16.2111C52.2481 16.8264 52.5938 17.661 52.5938 18.5312C52.5938 19.4015 52.2481 20.2361 51.6328 20.8514C51.0174 21.4668 50.1828 21.8125 49.3126 21.8125ZM27.4376 15.25H26.3438V14.1562C26.3438 13.286 25.9981 12.4514 25.3828 11.8361C24.7674 11.2207 23.9328 10.875 23.0626 10.875C22.1923 10.875 21.3577 11.2207 20.7424 11.8361C20.127 12.4514 19.7813 13.286 19.7813 14.1562V15.25H18.6876C17.8173 15.25 16.9827 15.5957 16.3674 16.2111C15.752 16.8264 15.4063 17.661 15.4063 18.5312C15.4063 19.4015 15.752 20.2361 16.3674 20.8514C16.9827 21.4668 17.8173 21.8125 18.6876 21.8125H19.7813V22.9062C19.7813 23.7765 20.127 24.6111 20.7424 25.2264C21.3577 25.8418 22.1923 26.1875 23.0626 26.1875C23.9328 26.1875 24.7674 25.8418 25.3828 25.2264C25.9981 24.6111 26.3438 23.7765 26.3438 22.9062V21.8125H27.4376C28.3078 21.8125 29.1424 21.4668 29.7578 20.8514C30.3731 20.2361 30.7188 19.4015 30.7188 18.5312C30.7188 17.661 30.3731 16.8264 29.7578 16.2111C29.1424 15.5957 28.3078 15.25 27.4376 15.25ZM58.8829 51.1797C58.2505 51.2874 57.6103 51.3422 56.9688 51.3438C54.0695 51.3341 51.2902 50.1851 49.2305 48.1445L49.0665 47.9531L38.293 36.0039H29.7344L18.9337 47.9805L18.7696 48.1445C17.1244 49.7948 14.9952 50.8765 12.6923 51.232C10.3893 51.5875 8.03303 51.1981 5.96682 50.1208C3.90062 49.0434 2.23249 47.3343 1.20557 45.2426C0.178658 43.1509 -0.153373 40.7858 0.257874 38.4922V38.4375L4.71491 15.5508V15.4961C5.41383 11.4331 7.53125 7.74975 10.6905 5.10114C13.8498 2.45254 17.8462 1.0104 21.9688 1.03125L46.0313 0.949219C50.1263 0.957185 54.0896 2.39647 57.2354 5.01799C60.3812 7.63951 62.5116 11.2783 63.2579 15.3047V15.3594L67.7422 38.4648C68.2516 41.3255 67.6047 44.2714 65.9436 46.6555C64.2824 49.0395 61.7429 50.6667 58.8829 51.1797ZM46.0313 29.3867C48.9321 29.3867 51.7141 28.2344 53.7653 26.1832C55.8165 24.132 56.9688 21.35 56.9688 18.4492C56.9688 15.5484 55.8165 12.7664 53.7653 10.7152C51.7141 8.66406 48.9321 7.51172 46.0313 7.51172L21.9688 7.59375C19.4181 7.58905 16.9463 8.47822 14.9831 10.1067C13.0199 11.7352 11.6894 14.0001 11.2227 16.5078C11.2003 16.569 11.191 16.6342 11.1954 16.6992L6.711 39.668C6.55495 40.5774 6.69042 41.5129 7.09805 42.3407C7.50568 43.1684 8.1646 43.8462 8.9806 44.2769C9.79659 44.7077 10.7279 44.8694 11.6413 44.739C12.5548 44.6086 13.4036 44.1927 14.0665 43.5508L25.8243 30.5625C26.1285 30.2172 26.503 29.9409 26.9227 29.7523C27.3425 29.5637 27.7977 29.467 28.2579 29.4688L46.0313 29.3867ZM61.2891 39.668L59.3751 29.7695C57.8514 31.5792 55.974 33.0584 53.858 34.1163C51.7421 35.1743 49.4323 35.7887 47.0704 35.9219L53.9337 43.5508C54.5965 44.1927 55.4453 44.6086 56.3588 44.739C57.2722 44.8694 58.2035 44.7077 59.0195 44.2769C59.8355 43.8462 60.4944 43.1684 60.9021 42.3407C61.3097 41.5129 61.4452 40.5774 61.2891 39.668Z" fill="black"/>
</svg>
