<svg width="44" height="33" viewBox="0 0 44 33" fill="none" xmlns="http://www.w3.org/2000/svg">
<path d="M11 32.5129C7.96 32.5129 5.36667 31.4494 3.22 29.3225C1.07333 27.1821 0 24.5743 0 21.4991C0 18.8575 0.78 16.5003 2.34 14.4276C3.91333 12.3549 5.96667 11.0341 8.5 10.4651C9.34 7.34926 11.0067 4.82952 13.5 2.90584C16.0067 0.968612 18.84 0 22 0C25.9067 0 29.2133 1.3818 31.92 4.14539C34.64 6.89544 36 10.2551 36 14.2244C38.3067 14.4953 40.2133 15.5114 41.72 17.2725C43.24 19.0065 44 21.0385 44 23.3686C44 25.9155 43.1267 28.0762 41.38 29.8509C39.6333 31.6255 37.5067 32.5129 35 32.5129H24C22.9067 32.5129 21.9667 32.1132 21.18 31.314C20.3933 30.5282 20 29.5732 20 28.4488V17.9837L16.8 21.1334L14 18.2885L22 10.1603L30 18.2885L27.2 21.1334L24 17.9837V28.4488H35C36.4 28.4488 37.58 27.9543 38.54 26.9654C39.5133 25.99 40 24.7911 40 23.3686C40 21.9462 39.5133 20.7473 38.54 19.7719C37.58 18.783 36.4 18.2885 35 18.2885H32V14.2244C32 11.4201 31.0267 9.02232 29.08 7.03091C27.1333 5.05304 24.7733 4.06411 22 4.06411C19.24 4.06411 16.88 5.05304 14.92 7.03091C12.9733 9.02232 12 11.4201 12 14.2244H11C9.06667 14.2244 7.42 14.9221 6.06 16.3174C4.68667 17.6992 4 19.3723 4 21.3366C4 23.3009 4.68667 24.9943 6.06 26.4167C7.42 27.7714 9.06667 28.4488 11 28.4488H16V32.5129" fill="#260E3A"/>
</svg>
