<svg width="74" height="74" viewBox="0 0 74 74" fill="none" xmlns="http://www.w3.org/2000/svg">
<circle cx="37" cy="35" r="18.5" stroke="white"/>
<path d="M5.73625 55.143L26.5864 33.5L51.0863 47L41.0863 19" stroke="white"/>
<path d="M21.94 10V3H23.01L26.07 8.11H25.51L28.52 3H29.59L29.6 10H28.37L28.36 4.93H28.62L26.06 9.2H25.48L22.88 4.93H23.18V10H21.94ZM30.5008 10L33.6508 3H34.9308L38.0908 10H36.7308L34.0208 3.69H34.5408L31.8408 10H30.5008ZM31.9508 8.38L32.3008 7.36H36.0808L36.4308 8.38H31.9508ZM38.981 10V3H41.861C42.481 3 43.011 3.1 43.451 3.3C43.8977 3.5 44.241 3.78667 44.481 4.16C44.721 4.53333 44.841 4.97667 44.841 5.49C44.841 6.00333 44.721 6.44667 44.481 6.82C44.241 7.18667 43.8977 7.47 43.451 7.67C43.011 7.86333 42.481 7.96 41.861 7.96H39.701L40.281 7.37V10H38.981ZM43.561 10L41.791 7.46H43.181L44.961 10H43.561ZM40.281 7.51L39.701 6.89H41.801C42.3743 6.89 42.8043 6.76667 43.091 6.52C43.3843 6.27333 43.531 5.93 43.531 5.49C43.531 5.04333 43.3843 4.7 43.091 4.46C42.8043 4.22 42.3743 4.1 41.801 4.1H39.701L40.281 3.46V7.51ZM47.4555 8.35L47.3855 6.81L51.0555 3H52.5155L49.4655 6.24L48.7455 7.03L47.4555 8.35ZM46.2955 10V3H47.5955V10H46.2955ZM51.1755 10L48.4955 6.81L49.3555 5.86L52.6955 10H51.1755Z" fill="white"/>
<path d="M2.14 63.91H5.62V64.98H2.14V63.91ZM2.24 66.91H6.19V68H0.94V61H6.05V62.09H2.24V66.91ZM7.63922 68V61H8.93922V66.9H12.5992V68H7.63922ZM14.8255 63.91H18.3055V64.98H14.8255V63.91ZM14.9255 66.91H18.8755V68H13.6255V61H18.7355V62.09H14.9255V66.91ZM23.5648 68.1C23.0314 68.1 22.5348 68.0133 22.0748 67.84C21.6214 67.66 21.2248 67.41 20.8848 67.09C20.5514 66.7633 20.2914 66.38 20.1048 65.94C19.9181 65.5 19.8248 65.02 19.8248 64.5C19.8248 63.98 19.9181 63.5 20.1048 63.06C20.2914 62.62 20.5548 62.24 20.8948 61.92C21.2348 61.5933 21.6314 61.3433 22.0848 61.17C22.5381 60.99 23.0348 60.9 23.5748 60.9C24.1481 60.9 24.6714 61 25.1448 61.2C25.6181 61.3933 26.0181 61.6833 26.3448 62.07L25.5048 62.86C25.2514 62.5867 24.9681 62.3833 24.6548 62.25C24.3414 62.11 24.0014 62.04 23.6348 62.04C23.2681 62.04 22.9314 62.1 22.6248 62.22C22.3248 62.34 22.0614 62.51 21.8348 62.73C21.6148 62.95 21.4414 63.21 21.3148 63.51C21.1948 63.81 21.1348 64.14 21.1348 64.5C21.1348 64.86 21.1948 65.19 21.3148 65.49C21.4414 65.79 21.6148 66.05 21.8348 66.27C22.0614 66.49 22.3248 66.66 22.6248 66.78C22.9314 66.9 23.2681 66.96 23.6348 66.96C24.0014 66.96 24.3414 66.8933 24.6548 66.76C24.9681 66.62 25.2514 66.41 25.5048 66.13L26.3448 66.93C26.0181 67.31 25.6181 67.6 25.1448 67.8C24.6714 68 24.1448 68.1 23.5648 68.1ZM28.9323 68V62.1H26.6123V61H32.5523V62.1H30.2323V68H28.9323ZM33.5279 68V61H36.4079C37.0279 61 37.5579 61.1 37.9979 61.3C38.4446 61.5 38.7879 61.7867 39.0279 62.16C39.2679 62.5333 39.3879 62.9767 39.3879 63.49C39.3879 64.0033 39.2679 64.4467 39.0279 64.82C38.7879 65.1867 38.4446 65.47 37.9979 65.67C37.5579 65.8633 37.0279 65.96 36.4079 65.96H34.2479L34.8279 65.37V68H33.5279ZM38.1079 68L36.3379 65.46H37.7279L39.5079 68H38.1079ZM34.8279 65.51L34.2479 64.89H36.3479C36.9212 64.89 37.3512 64.7667 37.6379 64.52C37.9312 64.2733 38.0779 63.93 38.0779 63.49C38.0779 63.0433 37.9312 62.7 37.6379 62.46C37.3512 62.22 36.9212 62.1 36.3479 62.1H34.2479L34.8279 61.46V65.51ZM44.1223 68.1C43.5757 68.1 43.0723 68.01 42.6123 67.83C42.1523 67.65 41.7523 67.4 41.4123 67.08C41.0723 66.7533 40.809 66.3733 40.6223 65.94C40.4357 65.5 40.3423 65.02 40.3423 64.5C40.3423 63.98 40.4357 63.5033 40.6223 63.07C40.809 62.63 41.0723 62.25 41.4123 61.93C41.7523 61.6033 42.1523 61.35 42.6123 61.17C43.0723 60.99 43.5723 60.9 44.1123 60.9C44.659 60.9 45.159 60.99 45.6123 61.17C46.0723 61.35 46.4723 61.6033 46.8123 61.93C47.1523 62.25 47.4157 62.63 47.6023 63.07C47.789 63.5033 47.8823 63.98 47.8823 64.5C47.8823 65.02 47.789 65.5 47.6023 65.94C47.4157 66.38 47.1523 66.76 46.8123 67.08C46.4723 67.4 46.0723 67.65 45.6123 67.83C45.159 68.01 44.6623 68.1 44.1223 68.1ZM44.1123 66.96C44.4657 66.96 44.7923 66.9 45.0923 66.78C45.3923 66.66 45.6523 66.49 45.8723 66.27C46.0923 66.0433 46.2623 65.7833 46.3823 65.49C46.509 65.19 46.5723 64.86 46.5723 64.5C46.5723 64.14 46.509 63.8133 46.3823 63.52C46.2623 63.22 46.0923 62.96 45.8723 62.74C45.6523 62.5133 45.3923 62.34 45.0923 62.22C44.7923 62.1 44.4657 62.04 44.1123 62.04C43.759 62.04 43.4323 62.1 43.1323 62.22C42.839 62.34 42.579 62.5133 42.3523 62.74C42.1323 62.96 41.959 63.22 41.8323 63.52C41.7123 63.8133 41.6523 64.14 41.6523 64.5C41.6523 64.8533 41.7123 65.18 41.8323 65.48C41.959 65.78 42.1323 66.0433 42.3523 66.27C42.5723 66.49 42.8323 66.66 43.1323 66.78C43.4323 66.9 43.759 66.96 44.1123 66.96ZM49.2603 68V61H50.3303L54.7203 66.39H54.1903V61H55.4803V68H54.4103L50.0203 62.61H50.5503V68H49.2603ZM57.356 68V61H58.656V68H57.356ZM63.7894 68.1C63.256 68.1 62.7594 68.0133 62.2994 67.84C61.846 67.66 61.4494 67.41 61.1094 67.09C60.776 66.7633 60.516 66.38 60.3294 65.94C60.1427 65.5 60.0494 65.02 60.0494 64.5C60.0494 63.98 60.1427 63.5 60.3294 63.06C60.516 62.62 60.7794 62.24 61.1194 61.92C61.4594 61.5933 61.856 61.3433 62.3094 61.17C62.7627 60.99 63.2594 60.9 63.7994 60.9C64.3727 60.9 64.896 61 65.3694 61.2C65.8427 61.3933 66.2427 61.6833 66.5694 62.07L65.7294 62.86C65.476 62.5867 65.1927 62.3833 64.8794 62.25C64.566 62.11 64.226 62.04 63.8594 62.04C63.4927 62.04 63.156 62.1 62.8494 62.22C62.5494 62.34 62.286 62.51 62.0594 62.73C61.8394 62.95 61.666 63.21 61.5394 63.51C61.4194 63.81 61.3594 64.14 61.3594 64.5C61.3594 64.86 61.4194 65.19 61.5394 65.49C61.666 65.79 61.8394 66.05 62.0594 66.27C62.286 66.49 62.5494 66.66 62.8494 66.78C63.156 66.9 63.4927 66.96 63.8594 66.96C64.226 66.96 64.566 66.8933 64.8794 66.76C65.1927 66.62 65.476 66.41 65.7294 66.13L66.5694 66.93C66.2427 67.31 65.8427 67.6 65.3694 67.8C64.896 68 64.3694 68.1 63.7894 68.1ZM69.9752 68.1C69.4286 68.1 68.9052 68.0233 68.4052 67.87C67.9052 67.71 67.5086 67.5067 67.2152 67.26L67.6652 66.25C67.9452 66.47 68.2919 66.6533 68.7052 66.8C69.1186 66.9467 69.5419 67.02 69.9752 67.02C70.3419 67.02 70.6386 66.98 70.8652 66.9C71.0919 66.82 71.2586 66.7133 71.3652 66.58C71.4719 66.44 71.5252 66.2833 71.5252 66.11C71.5252 65.8967 71.4486 65.7267 71.2952 65.6C71.1419 65.4667 70.9419 65.3633 70.6952 65.29C70.4552 65.21 70.1852 65.1367 69.8852 65.07C69.5919 65.0033 69.2952 64.9267 68.9952 64.84C68.7019 64.7467 68.4319 64.63 68.1852 64.49C67.9452 64.3433 67.7486 64.15 67.5952 63.91C67.4419 63.67 67.3652 63.3633 67.3652 62.99C67.3652 62.61 67.4652 62.2633 67.6652 61.95C67.8719 61.63 68.1819 61.3767 68.5952 61.19C69.0152 60.9967 69.5452 60.9 70.1852 60.9C70.6052 60.9 71.0219 60.9533 71.4352 61.06C71.8486 61.1667 72.2086 61.32 72.5152 61.52L72.1052 62.53C71.7919 62.3433 71.4686 62.2067 71.1352 62.12C70.8019 62.0267 70.4819 61.98 70.1752 61.98C69.8152 61.98 69.5219 62.0233 69.2952 62.11C69.0752 62.1967 68.9119 62.31 68.8052 62.45C68.7052 62.59 68.6552 62.75 68.6552 62.93C68.6552 63.1433 68.7286 63.3167 68.8752 63.45C69.0286 63.5767 69.2252 63.6767 69.4652 63.75C69.7119 63.8233 69.9852 63.8967 70.2852 63.97C70.5852 64.0367 70.8819 64.1133 71.1752 64.2C71.4752 64.2867 71.7452 64.4 71.9852 64.54C72.2319 64.68 72.4286 64.87 72.5752 65.11C72.7286 65.35 72.8052 65.6533 72.8052 66.02C72.8052 66.3933 72.7019 66.74 72.4952 67.06C72.2952 67.3733 71.9852 67.6267 71.5652 67.82C71.1452 68.0067 70.6152 68.1 69.9752 68.1Z" fill="white"/>
<circle cx="37" cy="35" r="18.5" stroke="white"/>
<path d="M5.73625 55.143L26.5864 33.5L51.0863 47L41.0863 19" stroke="white"/>
<path d="M21.94 10V3H23.01L26.07 8.11H25.51L28.52 3H29.59L29.6 10H28.37L28.36 4.93H28.62L26.06 9.2H25.48L22.88 4.93H23.18V10H21.94ZM30.5008 10L33.6508 3H34.9308L38.0908 10H36.7308L34.0208 3.69H34.5408L31.8408 10H30.5008ZM31.9508 8.38L32.3008 7.36H36.0808L36.4308 8.38H31.9508ZM38.981 10V3H41.861C42.481 3 43.011 3.1 43.451 3.3C43.8977 3.5 44.241 3.78667 44.481 4.16C44.721 4.53333 44.841 4.97667 44.841 5.49C44.841 6.00333 44.721 6.44667 44.481 6.82C44.241 7.18667 43.8977 7.47 43.451 7.67C43.011 7.86333 42.481 7.96 41.861 7.96H39.701L40.281 7.37V10H38.981ZM43.561 10L41.791 7.46H43.181L44.961 10H43.561ZM40.281 7.51L39.701 6.89H41.801C42.3743 6.89 42.8043 6.76667 43.091 6.52C43.3843 6.27333 43.531 5.93 43.531 5.49C43.531 5.04333 43.3843 4.7 43.091 4.46C42.8043 4.22 42.3743 4.1 41.801 4.1H39.701L40.281 3.46V7.51ZM47.4555 8.35L47.3855 6.81L51.0555 3H52.5155L49.4655 6.24L48.7455 7.03L47.4555 8.35ZM46.2955 10V3H47.5955V10H46.2955ZM51.1755 10L48.4955 6.81L49.3555 5.86L52.6955 10H51.1755Z" fill="white"/>
<path d="M2.14 63.91H5.62V64.98H2.14V63.91ZM2.24 66.91H6.19V68H0.94V61H6.05V62.09H2.24V66.91ZM7.63922 68V61H8.93922V66.9H12.5992V68H7.63922ZM14.8255 63.91H18.3055V64.98H14.8255V63.91ZM14.9255 66.91H18.8755V68H13.6255V61H18.7355V62.09H14.9255V66.91ZM23.5648 68.1C23.0314 68.1 22.5348 68.0133 22.0748 67.84C21.6214 67.66 21.2248 67.41 20.8848 67.09C20.5514 66.7633 20.2914 66.38 20.1048 65.94C19.9181 65.5 19.8248 65.02 19.8248 64.5C19.8248 63.98 19.9181 63.5 20.1048 63.06C20.2914 62.62 20.5548 62.24 20.8948 61.92C21.2348 61.5933 21.6314 61.3433 22.0848 61.17C22.5381 60.99 23.0348 60.9 23.5748 60.9C24.1481 60.9 24.6714 61 25.1448 61.2C25.6181 61.3933 26.0181 61.6833 26.3448 62.07L25.5048 62.86C25.2514 62.5867 24.9681 62.3833 24.6548 62.25C24.3414 62.11 24.0014 62.04 23.6348 62.04C23.2681 62.04 22.9314 62.1 22.6248 62.22C22.3248 62.34 22.0614 62.51 21.8348 62.73C21.6148 62.95 21.4414 63.21 21.3148 63.51C21.1948 63.81 21.1348 64.14 21.1348 64.5C21.1348 64.86 21.1948 65.19 21.3148 65.49C21.4414 65.79 21.6148 66.05 21.8348 66.27C22.0614 66.49 22.3248 66.66 22.6248 66.78C22.9314 66.9 23.2681 66.96 23.6348 66.96C24.0014 66.96 24.3414 66.8933 24.6548 66.76C24.9681 66.62 25.2514 66.41 25.5048 66.13L26.3448 66.93C26.0181 67.31 25.6181 67.6 25.1448 67.8C24.6714 68 24.1448 68.1 23.5648 68.1ZM28.9323 68V62.1H26.6123V61H32.5523V62.1H30.2323V68H28.9323ZM33.5279 68V61H36.4079C37.0279 61 37.5579 61.1 37.9979 61.3C38.4446 61.5 38.7879 61.7867 39.0279 62.16C39.2679 62.5333 39.3879 62.9767 39.3879 63.49C39.3879 64.0033 39.2679 64.4467 39.0279 64.82C38.7879 65.1867 38.4446 65.47 37.9979 65.67C37.5579 65.8633 37.0279 65.96 36.4079 65.96H34.2479L34.8279 65.37V68H33.5279ZM38.1079 68L36.3379 65.46H37.7279L39.5079 68H38.1079ZM34.8279 65.51L34.2479 64.89H36.3479C36.9212 64.89 37.3512 64.7667 37.6379 64.52C37.9312 64.2733 38.0779 63.93 38.0779 63.49C38.0779 63.0433 37.9312 62.7 37.6379 62.46C37.3512 62.22 36.9212 62.1 36.3479 62.1H34.2479L34.8279 61.46V65.51ZM44.1223 68.1C43.5757 68.1 43.0723 68.01 42.6123 67.83C42.1523 67.65 41.7523 67.4 41.4123 67.08C41.0723 66.7533 40.809 66.3733 40.6223 65.94C40.4357 65.5 40.3423 65.02 40.3423 64.5C40.3423 63.98 40.4357 63.5033 40.6223 63.07C40.809 62.63 41.0723 62.25 41.4123 61.93C41.7523 61.6033 42.1523 61.35 42.6123 61.17C43.0723 60.99 43.5723 60.9 44.1123 60.9C44.659 60.9 45.159 60.99 45.6123 61.17C46.0723 61.35 46.4723 61.6033 46.8123 61.93C47.1523 62.25 47.4157 62.63 47.6023 63.07C47.789 63.5033 47.8823 63.98 47.8823 64.5C47.8823 65.02 47.789 65.5 47.6023 65.94C47.4157 66.38 47.1523 66.76 46.8123 67.08C46.4723 67.4 46.0723 67.65 45.6123 67.83C45.159 68.01 44.6623 68.1 44.1223 68.1ZM44.1123 66.96C44.4657 66.96 44.7923 66.9 45.0923 66.78C45.3923 66.66 45.6523 66.49 45.8723 66.27C46.0923 66.0433 46.2623 65.7833 46.3823 65.49C46.509 65.19 46.5723 64.86 46.5723 64.5C46.5723 64.14 46.509 63.8133 46.3823 63.52C46.2623 63.22 46.0923 62.96 45.8723 62.74C45.6523 62.5133 45.3923 62.34 45.0923 62.22C44.7923 62.1 44.4657 62.04 44.1123 62.04C43.759 62.04 43.4323 62.1 43.1323 62.22C42.839 62.34 42.579 62.5133 42.3523 62.74C42.1323 62.96 41.959 63.22 41.8323 63.52C41.7123 63.8133 41.6523 64.14 41.6523 64.5C41.6523 64.8533 41.7123 65.18 41.8323 65.48C41.959 65.78 42.1323 66.0433 42.3523 66.27C42.5723 66.49 42.8323 66.66 43.1323 66.78C43.4323 66.9 43.759 66.96 44.1123 66.96ZM49.2603 68V61H50.3303L54.7203 66.39H54.1903V61H55.4803V68H54.4103L50.0203 62.61H50.5503V68H49.2603ZM57.356 68V61H58.656V68H57.356ZM63.7894 68.1C63.256 68.1 62.7594 68.0133 62.2994 67.84C61.846 67.66 61.4494 67.41 61.1094 67.09C60.776 66.7633 60.516 66.38 60.3294 65.94C60.1427 65.5 60.0494 65.02 60.0494 64.5C60.0494 63.98 60.1427 63.5 60.3294 63.06C60.516 62.62 60.7794 62.24 61.1194 61.92C61.4594 61.5933 61.856 61.3433 62.3094 61.17C62.7627 60.99 63.2594 60.9 63.7994 60.9C64.3727 60.9 64.896 61 65.3694 61.2C65.8427 61.3933 66.2427 61.6833 66.5694 62.07L65.7294 62.86C65.476 62.5867 65.1927 62.3833 64.8794 62.25C64.566 62.11 64.226 62.04 63.8594 62.04C63.4927 62.04 63.156 62.1 62.8494 62.22C62.5494 62.34 62.286 62.51 62.0594 62.73C61.8394 62.95 61.666 63.21 61.5394 63.51C61.4194 63.81 61.3594 64.14 61.3594 64.5C61.3594 64.86 61.4194 65.19 61.5394 65.49C61.666 65.79 61.8394 66.05 62.0594 66.27C62.286 66.49 62.5494 66.66 62.8494 66.78C63.156 66.9 63.4927 66.96 63.8594 66.96C64.226 66.96 64.566 66.8933 64.8794 66.76C65.1927 66.62 65.476 66.41 65.7294 66.13L66.5694 66.93C66.2427 67.31 65.8427 67.6 65.3694 67.8C64.896 68 64.3694 68.1 63.7894 68.1ZM69.9752 68.1C69.4286 68.1 68.9052 68.0233 68.4052 67.87C67.9052 67.71 67.5086 67.5067 67.2152 67.26L67.6652 66.25C67.9452 66.47 68.2919 66.6533 68.7052 66.8C69.1186 66.9467 69.5419 67.02 69.9752 67.02C70.3419 67.02 70.6386 66.98 70.8652 66.9C71.0919 66.82 71.2586 66.7133 71.3652 66.58C71.4719 66.44 71.5252 66.2833 71.5252 66.11C71.5252 65.8967 71.4486 65.7267 71.2952 65.6C71.1419 65.4667 70.9419 65.3633 70.6952 65.29C70.4552 65.21 70.1852 65.1367 69.8852 65.07C69.5919 65.0033 69.2952 64.9267 68.9952 64.84C68.7019 64.7467 68.4319 64.63 68.1852 64.49C67.9452 64.3433 67.7486 64.15 67.5952 63.91C67.4419 63.67 67.3652 63.3633 67.3652 62.99C67.3652 62.61 67.4652 62.2633 67.6652 61.95C67.8719 61.63 68.1819 61.3767 68.5952 61.19C69.0152 60.9967 69.5452 60.9 70.1852 60.9C70.6052 60.9 71.0219 60.9533 71.4352 61.06C71.8486 61.1667 72.2086 61.32 72.5152 61.52L72.1052 62.53C71.7919 62.3433 71.4686 62.2067 71.1352 62.12C70.8019 62.0267 70.4819 61.98 70.1752 61.98C69.8152 61.98 69.5219 62.0233 69.2952 62.11C69.0752 62.1967 68.9119 62.31 68.8052 62.45C68.7052 62.59 68.6552 62.75 68.6552 62.93C68.6552 63.1433 68.7286 63.3167 68.8752 63.45C69.0286 63.5767 69.2252 63.6767 69.4652 63.75C69.7119 63.8233 69.9852 63.8967 70.2852 63.97C70.5852 64.0367 70.8819 64.1133 71.1752 64.2C71.4752 64.2867 71.7452 64.4 71.9852 64.54C72.2319 64.68 72.4286 64.87 72.5752 65.11C72.7286 65.35 72.8052 65.6533 72.8052 66.02C72.8052 66.3933 72.7019 66.74 72.4952 67.06C72.2952 67.3733 71.9852 67.6267 71.5652 67.82C71.1452 68.0067 70.6152 68.1 69.9752 68.1Z" fill="white"/>
</svg>
