<svg width="54" height="66" viewBox="0 0 54 66" fill="none" xmlns="http://www.w3.org/2000/svg">
<path d="M47.2499 47.5834L45.427 43.5729L41.4166 41.75L45.427 39.9271L47.2499 35.9167L49.0728 39.9271L53.0833 41.75L49.0728 43.5729L47.2499 47.5834ZM32.6666 44.6667L29.0208 36.6459L20.9999 33L29.0208 29.3542L32.6666 21.3334L36.3124 29.3542L44.3333 33L36.3124 36.6459L32.6666 44.6667ZM47.2499 30.0834L45.427 26.0729L41.4166 24.25L45.427 22.4271L47.2499 18.4167L49.0728 22.4271L53.0833 24.25L49.0728 26.0729L47.2499 30.0834ZM6.41659 65.0834C4.81242 65.0834 3.43867 64.5117 2.29534 63.3684C1.15201 62.225 0.581312 60.8522 0.583257 59.25V6.75003C0.583257 5.14586 1.15492 3.77211 2.29826 2.62878C3.44159 1.48544 4.81437 0.914748 6.41659 0.916692H35.5833C37.1874 0.916692 38.5612 1.48836 39.7045 2.63169C40.8478 3.77503 41.4185 5.1478 41.4166 6.75003V18.4167H35.5833V15.5H6.41659V50.5H35.5833V47.5834H41.4166V59.25C41.4166 60.8542 40.8449 62.2279 39.7016 63.3713C38.5583 64.5146 37.1855 65.0853 35.5833 65.0834H6.41659Z" fill="black"/>
</svg>
