<svg width="28" height="41" viewBox="0 0 28 41" fill="none" xmlns="http://www.w3.org/2000/svg">
<path fill-rule="evenodd" clip-rule="evenodd" d="M14 3.33982C12.8969 3.33982 11.8046 3.53004 10.7855 3.89963C9.76632 4.26921 8.84031 4.81091 8.0603 5.49381C7.28029 6.17671 6.66155 6.98742 6.23941 7.87967C5.81727 8.77192 5.6 9.72823 5.6 10.694C5.6 11.6598 5.81727 12.6161 6.23941 13.5083C6.66155 14.4006 7.28029 15.2113 8.0603 15.8942C8.84031 16.5771 9.76632 17.1188 10.7855 17.4884C11.8046 17.8579 12.8969 18.0482 14 18.0482C16.2278 18.0482 18.3644 17.2733 19.9397 15.8942C21.515 14.515 22.4 12.6444 22.4 10.694C22.4 8.74354 21.515 6.87298 19.9397 5.49381C18.3644 4.11464 16.2278 3.33982 14 3.33982ZM2.8 10.694C2.8002 8.80697 3.42232 6.96009 4.5917 5.37495C5.76109 3.7898 7.42806 2.53374 9.39261 1.75747C11.3572 0.981199 13.5358 0.717701 15.6672 0.998592C17.7985 1.27948 19.792 2.09283 21.4085 3.34104C23.025 4.58925 24.1957 6.2193 24.7802 8.03559C25.3648 9.85189 25.3383 11.7773 24.704 13.5807C24.0696 15.3842 22.8544 16.9891 21.2041 18.2028C19.5538 19.4166 17.5385 20.1877 15.4 20.4236V33.9822C15.4 34.3073 15.2525 34.619 14.99 34.8489C14.7274 35.0787 14.3713 35.2079 14 35.2079C13.6287 35.2079 13.2726 35.0787 13.0101 34.8489C12.7475 34.619 12.6 34.3073 12.6 33.9822V20.426C9.8923 20.1273 7.40233 18.9734 5.5978 17.1809C3.79328 15.3885 2.79838 13.0833 2.8 10.694ZM9.7804 31.7122C9.84112 32.0327 9.75401 32.3612 9.53823 32.6255C9.32244 32.8898 8.99563 33.0683 8.6296 33.1217C6.636 33.411 5.0456 33.8449 3.9956 34.3303C3.60988 34.4926 3.25933 34.7124 2.9596 34.9799C2.89184 35.0445 2.83779 35.1193 2.8 35.2005V35.2079L2.8056 35.2275C2.81662 35.256 2.83167 35.2832 2.8504 35.3084C2.96091 35.4502 3.09821 35.5746 3.2564 35.6761C3.7184 35.9948 4.4744 36.338 5.5328 36.6444C7.6356 37.2572 10.6288 37.6593 14 37.6593C17.3712 37.6593 20.3644 37.2597 22.4672 36.6444C23.5256 36.3355 24.2816 35.9948 24.7436 35.6761C24.9027 35.5747 25.041 35.4504 25.1524 35.3084C25.1701 35.283 25.1842 35.2559 25.1944 35.2275L25.2 35.2079V35.1981C25.1622 35.1168 25.1082 35.0421 25.0404 34.9775C24.7405 34.7108 24.3899 34.4919 24.0044 34.3303C22.9516 33.8449 21.364 33.411 19.3704 33.1217C19.1847 33.0997 19.0059 33.0453 18.8447 32.9616C18.6835 32.878 18.5431 32.7669 18.4318 32.6348C18.3206 32.5028 18.2407 32.3526 18.197 32.193C18.1533 32.0335 18.1466 31.8679 18.1774 31.706C18.2081 31.5442 18.2757 31.3894 18.376 31.2508C18.4763 31.1123 18.6074 30.9928 18.7615 30.8994C18.9156 30.806 19.0895 30.7406 19.273 30.7072C19.4565 30.6737 19.6457 30.6729 19.8296 30.7047C21.9856 31.016 23.8952 31.5087 25.3092 32.1608C26.6 32.7565 28 33.737 28 35.2079C28 36.2522 27.272 37.0513 26.4768 37.6029C25.6648 38.1618 24.5728 38.6153 23.352 38.9708C20.8936 39.689 17.5868 40.1107 14 40.1107C10.4132 40.1107 7.1064 39.689 4.648 38.9708C3.4272 38.6153 2.3352 38.1618 1.5232 37.6029C0.728 37.0513 0 36.2522 0 35.2079C0 33.7395 1.4 32.7565 2.6908 32.1608C4.1048 31.5087 6.0144 31.016 8.1704 30.7047C8.53648 30.6515 8.91169 30.7278 9.21359 30.9167C9.51548 31.1056 9.71935 31.3917 9.7804 31.7122Z" fill="white"/>
</svg>
