<svg width="35" height="28" viewBox="0 0 35 28" fill="none" xmlns="http://www.w3.org/2000/svg">
<path d="M34.9368 3.42667C33.6644 3.98949 32.315 4.35912 30.9334 4.52333C32.3897 3.65239 33.4796 2.28169 34.0001 0.666666C32.6334 1.48 31.1351 2.05 29.5734 2.35833C28.5244 1.23596 27.134 0.491605 25.6183 0.240974C24.1027 -0.00965641 22.5467 0.247485 21.1922 0.972421C19.8377 1.69736 18.7607 2.84947 18.1286 4.24965C17.4965 5.64984 17.3447 7.21963 17.6968 8.715C14.9253 8.57609 12.214 7.85587 9.7389 6.60111C7.26382 5.34634 5.0803 3.58508 3.33009 1.43167C2.71057 2.49575 2.38501 3.70538 2.38675 4.93667C2.38675 7.35333 3.61675 9.48833 5.48675 10.7383C4.3801 10.7035 3.29781 10.4046 2.33009 9.86667V9.95333C2.33042 11.5628 2.88737 13.1227 3.9065 14.3684C4.92563 15.6142 6.34422 16.4691 7.92175 16.7883C6.89445 17.0667 5.81727 17.1078 4.77175 16.9083C5.21653 18.2937 6.08343 19.5053 7.25107 20.3735C8.41872 21.2417 9.82864 21.723 11.2834 21.75C9.83756 22.8855 8.18205 23.725 6.41156 24.2203C4.64106 24.7156 2.7903 24.8571 0.965088 24.6367C4.15125 26.6857 7.86025 27.7735 11.6484 27.77C24.4701 27.77 31.4818 17.1483 31.4818 7.93667C31.4818 7.63667 31.4734 7.33333 31.4601 7.03667C32.8249 6.05028 34.0028 4.82837 34.9384 3.42833L34.9368 3.42667Z" fill="white"/>
</svg>
