<svg width="34" height="28" viewBox="0 0 34 28" fill="none" xmlns="http://www.w3.org/2000/svg">
<path d="M29.6766 5.65829C29.5499 5.16163 29.1899 4.78663 28.7782 4.67163C28.0499 4.46663 24.4999 3.99996 16.9999 3.99996C9.49992 3.99996 5.95325 4.46663 5.21825 4.67163C4.81159 4.78496 4.45159 5.15996 4.32325 5.65829C4.14159 6.36496 3.66659 9.32663 3.66659 14C3.66659 18.6733 4.14159 21.6333 4.32325 22.3433C4.44992 22.8383 4.80992 23.2133 5.21992 23.3266C5.95325 23.5333 9.49992 24 16.9999 24C24.4999 24 28.0483 23.5333 28.7816 23.3283C29.1883 23.215 29.5483 22.84 29.6766 22.3416C29.8583 21.635 30.3333 18.6666 30.3333 14C30.3333 9.33329 29.8583 6.36663 29.6766 5.65829ZM32.9049 4.82996C33.6666 7.79996 33.6666 14 33.6666 14C33.6666 14 33.6666 20.2 32.9049 23.17C32.4816 24.8116 31.2432 26.1033 29.6749 26.54C26.8266 27.3333 16.9999 27.3333 16.9999 27.3333C16.9999 27.3333 7.17825 27.3333 4.32492 26.54C2.74992 26.0966 1.51325 24.8066 1.09492 23.17C0.333252 20.2 0.333252 14 0.333252 14C0.333252 14 0.333252 7.79996 1.09492 4.82996C1.51825 3.18829 2.75659 1.89663 4.32492 1.45996C7.17825 0.666626 16.9999 0.666626 16.9999 0.666626C16.9999 0.666626 26.8266 0.666626 29.6749 1.45996C31.2499 1.90329 32.4866 3.19329 32.9049 4.82996ZM13.6666 19.8333V8.16663L23.6666 14L13.6666 19.8333Z" fill="white"/>
</svg>
