<svg width="60" height="60" viewBox="0 0 60 60" fill="none" xmlns="http://www.w3.org/2000/svg">
<path d="M42.7166 35.8333C42.9499 33.9083 43.1249 31.9833 43.1249 30C43.1249 28.0166 42.9499 26.0916 42.7166 24.1666H52.5749C53.0416 26.0333 53.3332 27.9875 53.3332 30C53.3332 32.0125 53.0416 33.9666 52.5749 35.8333M37.5541 52.05C39.3041 48.8125 40.6458 45.3125 41.5791 41.6666H50.1832C47.3575 46.5324 42.8744 50.2183 37.5541 52.05ZM36.8249 35.8333H23.1749C22.8833 33.9083 22.7083 31.9833 22.7083 30C22.7083 28.0166 22.8833 26.0625 23.1749 24.1666H36.8249C37.0874 26.0625 37.2916 28.0166 37.2916 30C37.2916 31.9833 37.0874 33.9083 36.8249 35.8333ZM29.9999 53.2166C27.5791 49.7166 25.6249 45.8375 24.4291 41.6666H35.5707C34.3749 45.8375 32.4208 49.7166 29.9999 53.2166ZM18.3333 18.3333H9.81658C12.6132 13.4544 17.0931 9.76265 22.4166 7.94998C20.6666 11.1875 19.3541 14.6875 18.3333 18.3333ZM9.81658 41.6666H18.3333C19.3541 45.3125 20.6666 48.8125 22.4166 52.05C17.1042 50.2173 12.6307 46.5308 9.81658 41.6666ZM7.42492 35.8333C6.95825 33.9666 6.66658 32.0125 6.66658 30C6.66658 27.9875 6.95825 26.0333 7.42492 24.1666H17.2833C17.0499 26.0916 16.8749 28.0166 16.8749 30C16.8749 31.9833 17.0499 33.9083 17.2833 35.8333M29.9999 6.75415C32.4208 10.2541 34.3749 14.1625 35.5707 18.3333H24.4291C25.6249 14.1625 27.5791 10.2541 29.9999 6.75415ZM50.1832 18.3333H41.5791C40.6662 14.7209 39.3145 11.2338 37.5541 7.94998C42.9208 9.78748 47.3832 13.4916 50.1832 18.3333ZM29.9999 0.833313C13.8708 0.833313 0.833252 13.9583 0.833252 30C0.833252 37.7355 3.90616 45.1541 9.37597 50.6239C12.0843 53.3323 15.2997 55.4807 18.8383 56.9465C22.377 58.4122 26.1697 59.1666 29.9999 59.1666C37.7354 59.1666 45.1541 56.0937 50.6239 50.6239C56.0937 45.1541 59.1666 37.7355 59.1666 30C59.1666 26.1698 58.4122 22.377 56.9464 18.8384C55.4806 15.2997 53.3322 12.0844 50.6239 9.37603C47.9155 6.66766 44.7002 4.51926 41.1615 3.05349C37.6229 1.58773 33.8301 0.833313 29.9999 0.833313Z" fill="black"/>
</svg>
